<?xml version="1.0"?>
<svg xmlns="http://www.w3.org/2000/svg" xmlns:xlink="http://www.w3.org/1999/xlink" xmlns:svgjs="http://svgjs.com/svgjs" version="1.1" width="512" height="512" x="0" y="0" viewBox="0 0 512 512" style="enable-background:new 0 0 512 512" xml:space="preserve" class=""><g>
<g xmlns="http://www.w3.org/2000/svg">
	<g>
		<g>
			<path d="M492.16,245.493c-6.613-0.96-12.16,4.16-12.16,10.56c0,31.36-6.4,62.4-18.987,91.2c-0.747-0.213-1.6-0.427-2.347-0.533     H369.6c1.067-3.307,2.347-6.613,3.307-10.027c1.6-5.653-1.707-11.52-7.36-13.227c-5.653-1.6-11.52,1.707-13.227,7.36     c-1.493,5.333-3.413,10.667-5.333,15.893H143.04c-20.053-58.773-20.053-122.56,0-181.333h112.64c5.333,0,10.133-3.84,10.88-9.067     c0.96-6.613-4.16-12.267-10.56-12.267H151.253c19.733-45.44,51.52-84.693,91.84-113.493c9.707,6.72,18.987,13.973,27.733,21.867     c1.92,1.813,4.48,2.773,7.147,2.773c0.213,0,0.427-0.107,0.64-0.107c3.093,0.213,6.187-1.067,8.32-3.307     c3.947-4.373,3.627-11.093-0.747-15.04c-3.307-2.987-6.827-5.653-10.24-8.533c7.68,0.853,15.36,2.133,22.933,3.733     c5.76,1.173,11.413-2.667,12.48-8.427c1.067-5.653-2.453-11.093-8-12.373c-17.28-3.84-34.987-5.76-52.693-5.76     c-2.987,0-5.973,0.107-9.707,0.213c-0.107,0-0.32,0.107-0.427,0.107C105.493,11.467,0,121.227,0,256.053     C0,391.093,106.027,501.067,241.387,506.4c0.107,0,0.107,0,0.213,0c0.853,0,1.707,0,2.667,0.107c0.32,0,0.747,0.107,1.067,0.107     c0.32,0,0.64-0.107,0.853-0.107c1.493,0,2.987,0.107,4.48,0.107c138.133,0,250.453-112.213,250.667-250.24     C501.333,251.04,497.493,246.24,492.16,245.493z M208,31.093c-35.2,30.827-62.613,69.547-79.893,112.96h-77.44     C83.733,84.96,141.44,43.573,208,31.093z M40.533,347.253c-25.28-58.24-25.28-124.16,0-182.293     c0.747,0.213,1.6,0.427,2.347,0.427h77.867c-18.453,59.093-18.453,122.24,0,181.333H42.88     C42.027,346.827,41.28,346.933,40.533,347.253z M50.667,368.053h77.547c17.28,43.413,44.693,82.133,79.893,112.96     C141.44,468.533,83.84,427.147,50.667,368.053z M243.627,481.867c-40.64-28.8-72.533-68.16-92.373-113.813H338.56     C317.973,413.92,285.12,453.28,243.627,481.867z M276.16,483.893c37.653-30.933,67.093-70.827,85.653-115.84h88.853     C415.36,430.987,351.147,475.573,276.16,483.893z" fill="#3e8e9e" data-original="#000000" style="" class=""/>
			<path d="M363.52,250.933c14.507,20.587,31.04,43.947,31.147,53.013v0.213c0.107,5.867,4.8,10.56,10.667,10.56h0.107     c5.867,0,10.56-4.8,10.56-10.56v-0.32c0-9.067,16.64-32.64,31.36-53.547C476.16,209.44,512,158.56,512,111.307     c0-58.347-47.893-105.92-106.667-105.92c-58.773,0-106.667,47.467-106.667,105.92     C298.667,158.987,334.613,209.973,363.52,250.933z M405.333,26.72c47.04,0,85.333,37.973,85.333,84.587     c0,40.427-33.707,88.32-60.693,126.72c-9.92,13.973-18.453,26.24-24.64,36.8c-6.187-10.453-14.613-22.4-24.32-36.16     c-27.2-38.507-60.907-86.4-60.907-127.36C320,64.693,358.293,26.72,405.333,26.72z" fill="#3e8e9e" data-original="#000000" style="" class=""/>
			<path d="M405.333,165.387c29.44,0,53.333-23.893,53.333-53.333S434.773,58.72,405.333,58.72S352,82.613,352,112.053     S375.893,165.387,405.333,165.387z M405.333,80.053c17.707,0,32,14.293,32,32s-14.293,32-32,32s-32-14.293-32-32     S387.627,80.053,405.333,80.053z" fill="#3e8e9e" data-original="#000000" style="" class=""/>
		</g>
	</g>
</g>
<g xmlns="http://www.w3.org/2000/svg">
</g>
<g xmlns="http://www.w3.org/2000/svg">
</g>
<g xmlns="http://www.w3.org/2000/svg">
</g>
<g xmlns="http://www.w3.org/2000/svg">
</g>
<g xmlns="http://www.w3.org/2000/svg">
</g>
<g xmlns="http://www.w3.org/2000/svg">
</g>
<g xmlns="http://www.w3.org/2000/svg">
</g>
<g xmlns="http://www.w3.org/2000/svg">
</g>
<g xmlns="http://www.w3.org/2000/svg">
</g>
<g xmlns="http://www.w3.org/2000/svg">
</g>
<g xmlns="http://www.w3.org/2000/svg">
</g>
<g xmlns="http://www.w3.org/2000/svg">
</g>
<g xmlns="http://www.w3.org/2000/svg">
</g>
<g xmlns="http://www.w3.org/2000/svg">
</g>
<g xmlns="http://www.w3.org/2000/svg">
</g>
</g></svg>
